<?xml version="1.0" encoding="UTF-8" standalone="no"?>
<!-- Created with Inkscape (http://www.inkscape.org/) -->

<svg
   xmlns:dc="http://purl.org/dc/elements/1.1/"
   xmlns:cc="http://creativecommons.org/ns#"
   xmlns:rdf="http://www.w3.org/1999/02/22-rdf-syntax-ns#"
   xmlns:svg="http://www.w3.org/2000/svg"
   xmlns="http://www.w3.org/2000/svg"
   xmlns:sodipodi="http://sodipodi.sourceforge.net/DTD/sodipodi-0.dtd"
   xmlns:inkscape="http://www.inkscape.org/namespaces/inkscape"
   width="256"
   height="256"
   viewBox="0 0 256 256"
   id="svg2"
   version="1.1"
   inkscape:version="0.91 r13725"
   sodipodi:docname="Icon.svg">
  <defs
     id="defs4" />
  <sodipodi:namedview
     id="base"
     pagecolor="#ffffff"
     bordercolor="#666666"
     borderopacity="1.0"
     inkscape:pageopacity="0.0"
     inkscape:pageshadow="2"
     inkscape:zoom="1.979899"
     inkscape:cx="103.41759"
     inkscape:cy="130.89686"
     inkscape:document-units="px"
     inkscape:current-layer="layer1"
     showgrid="false"
     units="px"
     inkscape:window-width="1680"
     inkscape:window-height="987"
     inkscape:window-x="-8"
     inkscape:window-y="-8"
     inkscape:window-maximized="1" />
  <metadata
     id="metadata7">
    <rdf:RDF>
      <cc:Work
         rdf:about="">
        <dc:format>image/svg+xml</dc:format>
        <dc:type
           rdf:resource="http://purl.org/dc/dcmitype/StillImage" />
        <dc:title />
      </cc:Work>
    </rdf:RDF>
  </metadata>
  <g
     inkscape:label="Layer 1"
     inkscape:groupmode="layer"
     id="layer1"
     transform="translate(0,-796.36216)">
    <rect
       style="opacity:1;fill:#ffffff;fill-opacity:1;fill-rule:evenodd;stroke:none;stroke-width:10;stroke-linecap:round;stroke-linejoin:round;stroke-miterlimit:4;stroke-dasharray:none;stroke-dashoffset:0;stroke-opacity:1"
       id="rect4136"
       width="256"
       height="256"
       x="0"
       y="796.36218"
       rx="20" />
    <path
       style="font-style:normal;font-variant:normal;font-weight:bold;font-stretch:normal;font-size:190.17903137px;line-height:125%;font-family:Couture;-inkscape-font-specification:'Couture Bold';text-align:start;letter-spacing:-9.50895119px;word-spacing:0px;text-anchor:start;fill:#000000;fill-opacity:0.09803922;stroke:none;stroke-width:1px;stroke-linecap:butt;stroke-linejoin:miter;stroke-opacity:1;"
       d="M 136.91602 67.820312 L 136.91602 204.17969 L 165.82422 204.17969 L 165.82422 178.88477 L 165.82422 149.97852 L 227.82227 149.97852 L 227.82227 123.54297 L 165.82422 123.54297 L 165.82422 92.923828 L 236 92.923828 L 236 67.820312 L 136.91602 67.820312 z M 89.439453 69.152344 L 89.439453 152.64062 L 64.527344 152.64062 L 64.527344 89.501953 L 36 89.501953 L 36 151.30859 L 36 174.32031 L 89.25 174.32031 L 89.25 204.17969 L 115.875 204.17969 L 115.875 174.32031 L 131.08984 174.32031 L 131.08984 151.30859 L 115.875 151.30859 L 115.875 69.152344 L 89.439453 69.152344 z "
       transform="translate(0,796.36216)"
       id="text4152" />
    <path
       style="font-style:normal;font-variant:normal;font-weight:bold;font-stretch:normal;font-size:190.17903137px;line-height:125%;font-family:Couture;-inkscape-font-specification:'Couture Bold';text-align:start;letter-spacing:-9.50895119px;word-spacing:0px;text-anchor:start;fill:#61c062;fill-opacity:1;stroke:none;stroke-width:1px;stroke-linecap:butt;stroke-linejoin:miter;stroke-opacity:1"
       d="M 128.91602 59.820312 L 128.91602 196.17969 L 157.82422 196.17969 L 157.82422 170.88477 L 157.82422 141.97852 L 219.82227 141.97852 L 219.82227 115.54297 L 157.82422 115.54297 L 157.82422 84.923828 L 228 84.923828 L 228 59.820312 L 128.91602 59.820312 z M 81.439453 61.152344 L 81.439453 144.64062 L 56.527344 144.64062 L 56.527344 81.501953 L 28 81.501953 L 28 143.30859 L 28 166.32031 L 81.25 166.32031 L 81.25 196.17969 L 107.875 196.17969 L 107.875 166.32031 L 123.08984 166.32031 L 123.08984 143.30859 L 107.875 143.30859 L 107.875 61.152344 L 81.439453 61.152344 z "
       transform="translate(0,796.36216)"
       id="text4148" />
  </g>
</svg>
